<svg width="496" height="399" fill="none" xmlns="http://www.w3.org/2000/svg"><path d="M0 399C102.133 193.743 243 50.5 385 0 162.211 123.154 152.198 270.673 66.086 399H0z" fill="url(#paint0_radial)"/><path d="M56 399C192 102 318.5 27 385 0c60 153.5 111 389.5 111 389.5-46.4-14-31-22.5-76.5 0C393 347 265.5 235 201.522 280c-13.676 30.865-27.501 69.738-41.022 119H56z" fill="url(#paint1_linear)"/><path d="M227.073 208.017C254.498 140.5 312.998 74.5 377.998 38.5 416.925 136.983 446 267 446 267c-26.418-17.504-146.427-145.483-218.927-58.983z" fill="url(#paint2_linear)"/><path d="M496 389.5h-77.5C392 347 265.5 235 201.522 280 212.833 254.47 226 235 226 235c68.606-116.5 270 154.5 270 154.5z" fill="url(#paint3_linear)"/><path d="M340 63.5c8.667 4 29.4 38.9 47 156.5 29.5 17 66.761 50 66.761 50C443.261 254.5 404 100 378 38.5c-8 4.5-18 10-38 25z" fill="url(#paint4_linear)"/><defs><linearGradient id="paint1_linear" x1="179.5" y1="-21" x2="496.5" y2="390" gradientUnits="userSpaceOnUse"><stop offset=".193" stop-color="#792359"/><stop offset=".453" stop-color="#41292C"/><stop offset=".719" stop-color="#2F2F2F"/><stop offset="1" stop-color="#2F2D2E"/></linearGradient><linearGradient id="paint2_linear" x1="378.58" y1="21.466" x2="432.902" y2="253.682" gradientUnits="userSpaceOnUse"><stop offset=".151" stop-color="#792359"/><stop offset=".755" stop-color="#2F2F2F"/></linearGradient><linearGradient id="paint3_linear" x1="179.5" y1="-21" x2="496.5" y2="390" gradientUnits="userSpaceOnUse"><stop offset=".464" stop-color="#41292C"/><stop offset=".573" stop-color="#792359"/><stop offset=".891" stop-color="#2F2F2F"/><stop offset="1" stop-color="#2F2D2E"/></linearGradient><linearGradient id="paint4_linear" x1="401.184" y1="39" x2="401.184" y2="286.928" gradientUnits="userSpaceOnUse"><stop stop-color="#2F2F2F"/><stop offset=".417" stop-color="#D72483" stop-opacity=".16"/><stop offset=".714" stop-color="#362D2E" stop-opacity=".63"/></linearGradient><radialGradient id="paint0_radial" cx="0" cy="0" r="1" gradientUnits="userSpaceOnUse" gradientTransform="matrix(99.83745 207.84408 -3259.69033 1565.78511 125.663 123.656)"><stop offset=".318" stop-color="#792359"/><stop offset=".755" stop-color="#2F2F2F"/></radialGradient></defs></svg>