<svg width="496" height="399" viewBox="0 0 496 399" fill="none" xmlns="http://www.w3.org/2000/svg">
<path d="M0 399C102.133 193.743 243 50.5 385 0C162.211 123.154 152.198 270.673 66.0858 399H0Z" fill="url(#paint0_radial)"/>
<path d="M56.0001 399C192 102 318.5 27 385 0C445 153.5 496 389.5 496 389.5C449.6 375.5 465 367 419.5 389.5C393 347 265.5 235 201.522 280C187.846 310.865 174.021 349.738 160.5 399H56.0001Z" fill="url(#paint1_linear)"/>
<path d="M227.073 208.017C254.498 140.5 312.998 74.5 377.998 38.5C416.925 136.983 446 267 446 267C419.582 249.496 299.573 121.517 227.073 208.017Z" fill="url(#paint2_linear)"/>
<path d="M496 389.5H418.5C392 347 265.5 235 201.522 280C212.833 254.47 226 235 226 235C294.606 118.5 496 389.5 496 389.5Z" fill="url(#paint3_linear)"/>
<path d="M340 63.5C348.667 67.5 369.4 102.4 387 220C416.5 237 453.761 270 453.761 270C443.261 254.5 404 100 378 38.5C370 43 360 48.5 340 63.5Z" fill="url(#paint4_linear)"/>
<defs>
<radialGradient id="paint0_radial" cx="0" cy="0" r="1" gradientUnits="userSpaceOnUse" gradientTransform="translate(125.663 123.656) rotate(64.3428) scale(230.579 3616.25)">
<stop offset="0.317708" stop-color="#792359"/>
<stop offset="0.755208" stop-color="#2F2F2F"/>
</radialGradient>
<linearGradient id="paint1_linear" x1="179.5" y1="-21" x2="496.5" y2="390" gradientUnits="userSpaceOnUse">
<stop offset="0.192708" stop-color="#792359"/>
<stop offset="0.453125" stop-color="#41292C"/>
<stop offset="0.71875" stop-color="#2F2F2F"/>
<stop offset="1" stop-color="#2F2D2E"/>
</linearGradient>
<linearGradient id="paint2_linear" x1="378.58" y1="21.4658" x2="432.902" y2="253.682" gradientUnits="userSpaceOnUse">
<stop offset="0.151042" stop-color="#792359"/>
<stop offset="0.755208" stop-color="#2F2F2F"/>
</linearGradient>
<linearGradient id="paint3_linear" x1="179.5" y1="-21" x2="496.5" y2="390" gradientUnits="userSpaceOnUse">
<stop offset="0.463542" stop-color="#41292C"/>
<stop offset="0.572917" stop-color="#792359"/>
<stop offset="0.890625" stop-color="#2F2F2F"/>
<stop offset="1" stop-color="#2F2D2E"/>
</linearGradient>
<linearGradient id="paint4_linear" x1="401.184" y1="39" x2="401.184" y2="286.928" gradientUnits="userSpaceOnUse">
<stop stop-color="#2F2F2F"/>
<stop offset="0.416667" stop-color="#D72483" stop-opacity="0.16"/>
<stop offset="0.713542" stop-color="#362D2E" stop-opacity="0.63"/>
</linearGradient>
</defs>
</svg>
